<svg id="Livello_1" data-name="Livello 1" xmlns="http://www.w3.org/2000/svg" viewBox="0 0 599 600"><defs><style>.cls-1{fill:#fff;}.cls-2{fill:none;}</style></defs><title>SerenDPT - Tavola disegno 3</title><path class="cls-1" d="M287.87,317.5a3.4,3.4,0,0,0-3.3,2.87h6.53a3.29,3.29,0,0,0-3.24-2.87m47.63,0a3.4,3.4,0,0,0-3.3,2.87h6.53a3.29,3.29,0,0,0-3.24-2.87m64.85-15.27h-5.86V327h5.86c6.9,0,11.91-5.44,11.91-12.4s-5-12.33-11.91-12.33m44.82,0h-5.8v9.34h5.8a4.8,4.8,0,0,0,4.82-4.82,4.66,4.66,0,0,0-4.82-4.52M120.37,370.5a8.28,8.28,0,1,1,8.28-8.28,8.29,8.29,0,0,1-8.28,8.28m32.14,0a8.28,8.28,0,1,1,8.28-8.28,8.29,8.29,0,0,1-8.28,8.28m32.14,0a8.28,8.28,0,1,1,8.28-8.28,8.29,8.29,0,0,1-8.28,8.28m32.14,0a8.28,8.28,0,1,1,8.28-8.28,8.29,8.29,0,0,1-8.28,8.28m32.14,0a8.28,8.28,0,1,1,8.28-8.28,8.29,8.29,0,0,1-8.28,8.28m32.14,0a8.28,8.28,0,1,1,8.28-8.28,8.29,8.29,0,0,1-8.28,8.28m32.14,0a8.28,8.28,0,1,1,8.28-8.28,8.29,8.29,0,0,1-8.28,8.28m32.14,0a8.28,8.28,0,1,1,8.28-8.28,8.29,8.29,0,0,1-8.28,8.28m32.14,0a8.28,8.28,0,1,1,8.28-8.28,8.29,8.29,0,0,1-8.28,8.28m32.14,0a8.28,8.28,0,1,1,8.28-8.28,8.29,8.29,0,0,1-8.28,8.28m32.14,0a8.28,8.28,0,1,1,8.28-8.28,8.29,8.29,0,0,1-8.28,8.28m32.14,0a8.28,8.28,0,1,1,8.28-8.28,8.29,8.29,0,0,1-8.28,8.28M288.24,336.61a12.83,12.83,0,0,1-.12-25.65,11.42,11.42,0,0,1,11.6,11.48,14.58,14.58,0,0,1-.12,1.65,1.18,1.18,0,0,1-1.16,1H283.78a4.54,4.54,0,0,0,4.7,4,8,8,0,0,0,4.28-1.47,1.37,1.37,0,0,1,.83-.32.89.89,0,0,1,.69.32l3.05,3.66a1.31,1.31,0,0,1-.06,1.77,12.43,12.43,0,0,1-9,3.48M310.34,315c1.22-1.77,3.48-4,6.66-4,3.36,0,5.74,1.22,4.89,2.63l-3,4.88a1.09,1.09,0,0,1-.93.63,1.21,1.21,0,0,1-.41-.08,4.36,4.36,0,0,0-1.46-.31,3.25,3.25,0,0,0-3.24,3.48v12.64c0,.73-.37,1.16-1.34,1.16h-6.23a1.2,1.2,0,0,1-1.16-1.16V312.74a1.16,1.16,0,0,1,1.16-1.16h2.87a1.11,1.11,0,0,1,1.1.73l1.1,2.69m25.53,21.62a12.83,12.83,0,0,1-.12-25.65,11.42,11.42,0,0,1,11.6,11.48,14.91,14.91,0,0,1-.12,1.65,1.18,1.18,0,0,1-1.16,1H331.41a4.54,4.54,0,0,0,4.7,4,8,8,0,0,0,4.28-1.47,1.37,1.37,0,0,1,.83-.32.89.89,0,0,1,.69.32l3.05,3.66a1.31,1.31,0,0,1-.06,1.77,12.43,12.43,0,0,1-9,3.48m22-21.86a11.51,11.51,0,0,1,8.61-3.79c7.57,0,11.6,5.8,11.6,12.76v11.11A1.2,1.2,0,0,1,376.9,336h-6.54a1.16,1.16,0,0,1-1.16-1.16V323.42c0-2.44-1.41-4.58-4.15-4.58a4.45,4.45,0,0,0-4.64,4.27v11.72a1,1,0,0,1-1.1,1.16H352.9a1.2,1.2,0,0,1-1.16-1.16V312.74a1.16,1.16,0,0,1,1.16-1.16h2.87a1.35,1.35,0,0,1,1.1.73l1,2.44M386.06,336a1.15,1.15,0,0,1-1.1-1.16V294.42a1.15,1.15,0,0,1,1.1-1.16H401A21.37,21.37,0,1,1,401,336h-14.9M431,336a1.16,1.16,0,0,1-1.16-1.16V294.42a1.16,1.16,0,0,1,1.16-1.16h14.72a13.62,13.62,0,1,1,.06,27.24h-6.41v14.35a1.2,1.2,0,0,1-1.16,1.16H431m31.57-33.77a1.16,1.16,0,0,1-1.16-1.16v-6.66a1.16,1.16,0,0,1,1.16-1.16h27.11a1.16,1.16,0,0,1,1.16,1.16v6.66a1.16,1.16,0,0,1-1.16,1.16H481v32.61a1.2,1.2,0,0,1-1.16,1.16h-7.33a1.2,1.2,0,0,1-1.16-1.16V302.23h-8.73M257.52,328.13c2.44,0,4.21-1.53,4.21-3.66,0-2.57-2.14-4.52-6.29-6.17-5.25-2.08-11.85-6.17-11.85-13.49,0-6,4.7-12.15,14.11-12.15a22.72,22.72,0,0,1,13.07,4.58,1.55,1.55,0,0,1,.37,2l-3.12,4.7a2.15,2.15,0,0,1-1.59.94.78.78,0,0,1-.49-.15c-.55-.3-5-3.66-8.73-3.66-2.2,0-3.85,1.47-3.85,3.11,0,2.26,1.83,4,6.66,5.92s12.34,5.62,12.34,13.92c0,6.29-5.44,12.64-14.41,12.64-7.94,0-12.34-3.3-13.74-4.7-.61-.61-.79-.85-.31-1.71l2.87-5.07a1.35,1.35,0,0,1,1.2-.6,1.6,1.6,0,0,1,.88.23c.25.12,4.64,3.36,8.67,3.36M426,90.48a72.28,72.28,0,0,0-60.26,32.25L344.6,154.47a98.23,98.23,0,0,1-81.9,43.83h-18c-79.75,0-144.75,64.29-145.92,143.76h0v31.57a8.77,8.77,0,0,0,8.76,8.76H489.68a8.77,8.77,0,0,0,8.76-8.76V162.91A72.51,72.51,0,0,0,426,90.48"/><path class="cls-1" d="M105.24,424.86h20.84c2.16,0,3.59-1.44,3.59-4.31V399.7c0-2.16-1.44-4.31-3.59-4.31H105.24a4.14,4.14,0,0,0-4.31,4.31v20.84A4.64,4.64,0,0,0,105.24,424.86Z"/><path class="cls-1" d="M172.09,395.39H151.24a4.14,4.14,0,0,0-4.31,4.31v20.84a4.14,4.14,0,0,0,4.31,4.31h20.84c2.16,0,3.59-1.44,3.59-4.31V399.7C175.68,397.55,174.24,395.39,172.09,395.39Z"/><path class="cls-1" d="M196.52,424.86h20.84c2.16,0,3.59-1.44,3.59-4.31V399.7c0-2.16-1.44-4.31-3.59-4.31H196.52a4.14,4.14,0,0,0-4.31,4.31v20.84C192.93,422.7,194.37,424.86,196.52,424.86Z"/><path class="cls-1" d="M242.53,424.86h20.84a4.14,4.14,0,0,0,4.31-4.31V399.7a4.14,4.14,0,0,0-4.31-4.31H242.53a4.14,4.14,0,0,0-4.31,4.31v20.84A4.64,4.64,0,0,0,242.53,424.86Z"/><path class="cls-1" d="M287.81,424.86h20.84a4.14,4.14,0,0,0,4.31-4.31V399.7a4.14,4.14,0,0,0-4.31-4.31H287.81a4.14,4.14,0,0,0-4.31,4.31v20.84C284.21,422.7,285.65,424.86,287.81,424.86Z"/><path class="cls-1" d="M333.81,424.86h20.84a4.14,4.14,0,0,0,4.31-4.31V399.7a4.14,4.14,0,0,0-4.31-4.31H333.81a4.14,4.14,0,0,0-4.31,4.31v20.84A4.64,4.64,0,0,0,333.81,424.86Z"/><path class="cls-1" d="M400.66,395.39H379.81a4.14,4.14,0,0,0-4.31,4.31v20.84a4.14,4.14,0,0,0,4.31,4.31h20.84a4.14,4.14,0,0,0,4.31-4.31V399.7C404.25,397.55,402.81,395.39,400.66,395.39Z"/><path class="cls-1" d="M425.09,424.86h20.84a4.14,4.14,0,0,0,4.31-4.31V399.7a4.14,4.14,0,0,0-4.31-4.31H425.09a4.14,4.14,0,0,0-4.31,4.31v20.84C421.5,422.7,422.94,424.86,425.09,424.86Z"/><path class="cls-1" d="M491.94,395.39H471.09a4.14,4.14,0,0,0-4.31,4.31v20.84a4.14,4.14,0,0,0,4.31,4.31h20.84a4.14,4.14,0,0,0,4.31-4.31V399.7A4.64,4.64,0,0,0,491.94,395.39Z"/><path class="cls-1" d="M172.09,436.36H105.24a4.14,4.14,0,0,0-4.31,4.31v20.84a4.14,4.14,0,0,0,4.31,4.31h66.85a4.14,4.14,0,0,0,4.31-4.31V440.67C175.68,438.52,174.24,436.36,172.09,436.36Z"/><path class="cls-1" d="M196.52,465.83h20.84a3.4,3.4,0,0,0,3.59-3.59V441.39c0-2.16-1.44-4.31-3.59-4.31H196.52a4.14,4.14,0,0,0-4.31,4.31v20.84C192.93,463.67,194.37,465.83,196.52,465.83Z"/><path class="cls-1" d="M242.53,465.83h20.84c2.16,0,4.31-1.44,4.31-3.59V441.39a4.14,4.14,0,0,0-4.31-4.31H242.53a4.14,4.14,0,0,0-4.31,4.31v20.84C238.21,463.67,240.37,465.83,242.53,465.83Z"/><path class="cls-1" d="M287.81,465.83h20.84c2.16,0,4.31-1.44,4.31-3.59V441.39a4.14,4.14,0,0,0-4.31-4.31H287.81a4.14,4.14,0,0,0-4.31,4.31v20.84C284.21,463.67,285.65,465.83,287.81,465.83Z"/><path class="cls-1" d="M333.81,465.83h20.84c2.16,0,4.31-1.44,4.31-3.59V441.39a4.14,4.14,0,0,0-4.31-4.31H333.81a4.14,4.14,0,0,0-4.31,4.31v20.84C329.5,463.67,331.65,465.83,333.81,465.83Z"/><path class="cls-1" d="M400.66,436.36H379.81a4.14,4.14,0,0,0-4.31,4.31v20.84c0,2.16,1.44,3.59,4.31,3.59h20.84c2.16,0,4.31-1.44,4.31-3.59V440.67C404.25,438.52,402.81,436.36,400.66,436.36Z"/><path class="cls-1" d="M491.94,436.36H425.09a4.14,4.14,0,0,0-4.31,4.31v20.84a4.14,4.14,0,0,0,4.31,4.31h66.85a4.14,4.14,0,0,0,4.31-4.31V440.67A4.64,4.64,0,0,0,491.94,436.36Z"/><path class="cls-1" d="M126.09,478H105.24c-2.16,0-4.31,1.44-4.31,3.59v20.84a4.14,4.14,0,0,0,4.31,4.31h20.84c2.16,0,3.59-1.44,3.59-4.31V481.64C130.4,479.49,128.24,478,126.09,478Z"/><path class="cls-1" d="M172.09,478H151.24c-2.16,0-4.31,1.44-4.31,3.59v20.84a4.14,4.14,0,0,0,4.31,4.31h20.84c2.16,0,3.59-1.44,3.59-4.31V481.64A3.4,3.4,0,0,0,172.09,478Z"/><path class="cls-1" d="M400.66,478H196.52a4.14,4.14,0,0,0-4.31,4.31v20.84a4.14,4.14,0,0,0,4.31,4.31H400.66a4.14,4.14,0,0,0,4.31-4.31V482.36Q403.89,478,400.66,478Z"/><path class="cls-1" d="M446.66,478H425.81c-2.16,0-4.31,1.44-4.31,3.59v20.84a4.14,4.14,0,0,0,4.31,4.31h20.84a4.14,4.14,0,0,0,4.31-4.31V481.64C450.25,479.49,448.81,478,446.66,478Z"/><path class="cls-1" d="M491.94,478H471.09c-2.16,0-4.31,1.44-4.31,3.59v20.84a4.14,4.14,0,0,0,4.31,4.31h20.84a4.14,4.14,0,0,0,4.31-4.31V481.64C496.25,479.49,494.1,478,491.94,478Z"/><rect class="cls-2" width="599" height="600"/></svg>